<svg id="Layer_1" data-name="Layer 1" xmlns="http://www.w3.org/2000/svg" viewBox="0 0 42 47.25"><defs><style>.cls-1{fill:#1172d4;}.cls-2{fill:#439fff;}.cls-3{fill:none;}.cls-4{fill:#1d2127;}.cls-5{fill:#0061bc;}</style></defs><polygon class="cls-1" points="5.25 10.5 5.25 36.75 21 47.25 21 10.5 5.25 10.5"/><polygon class="cls-2" points="21 10.5 36.75 10.5 36.75 36.75 21 47.25 21 10.5"/><path class="cls-3" d="M18.75,37.12" transform="translate(-3 -0.37)"/><polygon class="cls-4" points="10.5 15.75 10.5 31.5 15.75 36.75 15.75 15.75 10.5 15.75"/><polygon class="cls-4" points="26.25 10.5 26.25 22.84 36.75 10.5 26.25 10.5"/><polygon class="cls-4" points="36.75 17.59 29.79 27.17 36.75 36.75 36.75 17.59"/><polygon class="cls-4" points="26.25 30.98 26.25 43.75 33.21 39.27 26.25 30.98"/><path class="cls-5" d="M18.75.37V5.62H13.5L8.25.37H3v10.5H24V.37Z" transform="translate(-3 -0.37)"/><path class="cls-1" d="M45,.37H39.75L34.5,5.62H29.25V.37H24v10.5H45Z" transform="translate(-3 -0.37)"/><polygon class="cls-2" points="5.25 0 5.25 5.25 10.5 5.25 5.25 0"/><polygon class="cls-5" points="36.75 0 36.75 5.25 31.5 5.25 36.75 0"/></svg>